<?xml version="1.0" encoding="utf-8"?>
<!-- Generator: Adobe Illustrator 22.1.0, SVG Export Plug-In . SVG Version: 6.00 Build 0)  -->
<svg version="1.1" id="Layer_1" xmlns="http://www.w3.org/2000/svg" xmlns:xlink="http://www.w3.org/1999/xlink" x="0px" y="0px"
	 viewBox="0 0 397 218.3" style="enable-background:new 0 0 397 218.3;" xml:space="preserve">
<style type="text/css">
	.st0{fill:#EC5664;}
	.st1{fill:none;stroke:#EC5664;stroke-width:4;stroke-linecap:round;}
</style>
<g id="XMLID_1_">
	<path id="XMLID_48_" class="st0" d="M146.7,94c1.5,0.1,2.2-0.7,2.6-2c1.3-3.7,3.7-6.5,7.9-7c3.5-0.5,6.4,1.1,7.6,4.4
		c0.7,1.8,0.8,3.9,1,5.9c0,0.4-0.4,0.9-0.7,1.3c-1.2,1.2-2.5,2.3-3.5,3.6c-2,2.6-2.1,5.7-0.8,8.6c0.9,2.2,2.6,3.6,5.1,3.7
		c2.7,0.1,4.6-1.2,5.8-3.5c1.6-3,1.5-6.3,0.8-9.4c-1.3-5.4-3.1-10.7-4.5-16.1c-0.7-2.7-1.2-5.5-1.2-8.3c0.1-6.8,5.1-11.7,12.2-12.4
		c3.1-0.3,6.2-0.2,9.1,1.1c1,0.5,1.9,1.2,3,1.8c-3.1,3.1-2.3,6.8-2,10.4c0.3,3.7,0.8,7.4,1,11.1c0.5,8.4-0.2,11.6-4.4,20.9
		c0.9-0.6,1.9-1.2,2.6-2c2.6-2.8,5.1-5.7,7.6-8.7c0.4-0.4,0.5-1.2,0.5-1.8c-0.6-14.8,9.6-26,22.1-30.3c4-1.4,8.1-2.1,12.3-1.5
		c6.8,0.9,10,5,9.1,11.8c-0.9,7.1-7.6,14.7-14.5,16.4c-1.5,0.4-3.2,0.3-4.8,0.1c-1.4-0.2-2.2-1.2-2.3-2.8c4.2-0.2,6.3-3,7.7-6.5
		c1.2-3,1.7-6.1,1.3-9.4c-0.2-1.3-0.6-2.6-2.1-3s-2.5,0.5-3.3,1.5c-2.4,3.2-3.5,6.9-4.2,10.8c-1,5.3-1.5,10.6,0.4,15.9
		c2,5.5,7.2,7.6,12.3,4.8c2.3-1.3,4.3-3.2,6.4-4.8c1.3-1,1.8-2.3,2.2-3.9c2.2-7.4,6.7-13.4,12.9-18c5-3.7,10.6-5.9,16.9-6.4
		c3.7-0.3,7.2,0.1,10.8,1c0.5,0.1,1,0.3,1.5,0.6c1,0.6,2.4,1.2,1.9,2.8c-0.4,1.4-1.6,1.9-3.1,1.8c-4.8-0.2-8.2,2.3-11.1,5.7
		c-3.5,4.3-5.8,9.2-6.9,14.7c-0.1,0.6-0.2,1.3-0.1,1.9c0.2,2.1,1.8,3.2,3.4,2c2.4-1.6,4.6-3.6,6.5-5.7c4.9-5.3,8.4-11.5,11.6-17.9
		c3.7-7.4,7.8-14.6,11.8-21.8c1.4-2.5,3.8-3.8,6.5-4.5c4.1-1.1,8.1-1.2,12,0.6c3.7,1.7,5,4.9,3.3,8.6c-2.9,6.1-5.9,12-9,17.9
		c-4.3,8.1-8.9,16-13.2,24c-0.9,1.6-1.6,3.3-2.1,5.1c-0.2,0.9-0.2,2.3,0.4,2.8c0.5,0.5,2.1,0.4,2.8,0c2.3-1.4,4.4-3.1,6.6-4.7
		c2.4-1.8,3.7-4.4,4.9-7.1c2.7-5.5,6.5-10.3,11-14.3c4.3-3.7,9.4-4.4,14.6-2.4c4.1,1.5,5.9,5.4,4.3,9.7c-1.3,3.4-3.1,6.6-4.7,10
		c-1.8,3.8-3.5,7.6-5.3,11.4c0,0.1-0.1,0.2-0.1,0.3c0.1,1.2-0.2,2.7,0.4,3.5c1,1.2,2.3,0,3.4-0.6c4.5-2.4,8.3-0.8,3.7,3.1
		c-4.7,4-10.2,6.3-16.5,6.1c-8.5-0.3-14.1-5.9-14.2-14.3c0-0.2,0-0.4,0-0.3c-3.1,2.2-6.1,4.6-9.5,6.5c-3.7,2.2-7.9,2.8-12.2,2.2
		c-5.6-0.9-9.3-4.6-9.6-10.2c-0.2-3.1,0.5-6.2,0.7-9.3c0-0.4,0.1-0.7,0.2-1.2c-2.5,2.4-4.8,4.7-7.3,6.9c-4.1,3.5-8.4,6.5-13.8,7.4
		c-5.4,0.9-12.5-1.2-14.1-9c-2.3,1.7-4.6,3.5-7.1,5c-5.2,3.3-11,5.2-17.2,5.1c-7.9-0.1-13.8-3.3-16.6-11
		c-7.7,9.4-17.7,14.2-29.8,14.3c-2.8,0-5.9-0.6-8.5-1.6c-6.7-2.6-9.7-8.1-10.4-15c-0.1-0.7-0.1-1.4-0.1-2.1c-2.9,1-2.2,0.5-2.9,3.2
		c-1.7,6.9-4.6,13.1-10.5,17.4c-6.7,4.8-14.1,6.4-21.9,3.3c-5-2-7.6-6.2-9-11.2c-3.5-12.7,3.2-27.4,14.8-32.9
		c1.7-0.8,2.7-1.8,3.5-3.5c2.1-4.3,5.7-6.7,10.5-7.1c4.7-0.3,7.5,2.5,9.7,6.2c3.1,5.4,4,11.3,3.9,17.4C146.7,92.1,146.7,93,146.7,94
		z M140.5,94.4c-0.2-5.7-1.2-10.8-4.6-15.2c-0.9-1.1-2.3-2.1-3.6-2.6c-2.8-1-5.4,1.1-4.9,4.1c0.2,1.6,0.8,3.2,1.5,4.6
		C131.4,89.8,135.1,92.9,140.5,94.4z M123.1,90.6c-0.2,0.1-0.3,0.2-0.5,0.3c0.5,1.8,0.8,3.7,1.5,5.5c1.4,3.5,3.7,6.2,7.4,7.5
		c3.5,1.3,7.2-0.5,7.9-4.1C132.3,99.7,126.8,96.8,123.1,90.6z"/>
	<path id="XMLID_46_" class="st0" d="M54.5,110.6c-1.9,4.3-2.6,8.8-2.1,13.5c0.2,1.7,0.6,3.6,1.3,5.1c2,4.4,6.7,6,11.9,3.8
		c7.6-3.2,12.5-8.8,13.4-17.3c0.7-6.5-1.9-12-7-15.9c-3.8-2.9-8-5.1-12-7.8c-2.9-1.9-6-3.8-8.6-6.1c-5.4-4.8-6.6-11-5.1-17.8
		c1.5-6.7,5.6-11.6,10.9-15.7c7.6-5.6,16-9.1,25.6-9.4c4.1-0.1,8.2,0.5,11.3,3.5c3.4,3.3,4,7.3,2.7,11.7c-1.3,4.4-4.2,7.2-8.8,8.2
		c-0.3,0.1-0.5,0-1,0c0.1-0.6,0.1-1.1,0.2-1.6c0.6-4,0.2-7.8-2.1-11.2c-1.9-2.7-4.6-4.1-7.8-3.8c-2.2,0.2-4.5,0.8-6.5,1.8
		c-5.4,2.6-6.7,7.9-3.5,13c2.2,3.4,5.6,5.2,9,7c4.5,2.3,9.2,4.3,13.3,7.1c9.8,7,13,19,8.7,31c-3.4,9.5-9.9,16.7-18,22.4
		c-5.7,4-11.9,6.9-18.9,7.8c-6.7,0.9-12.9-0.1-17.1-6c-4.1-5.8-5.1-12.1-1.9-18.7c1.3-2.7,3.5-4.6,6.5-5.5
		C50.9,109.2,52.8,109.5,54.5,110.6z"/>
	<path id="XMLID_44_" class="st0" d="M339.6,77.3c-4.2-0.2-7.8-1.8-9.8-5.9s-1.2-8.1,1.6-11.5c3.2-4,7.4-6,12.6-5.1
		c8.6,1.4,11.9,10.8,6.3,17.5C347.4,75.5,343.9,77.1,339.6,77.3z"/>
</g>
<g>
	<path class="st0" d="M162.7,177.4c-1.3,1.2-2.4,0.8-2.5-1c-0.1-2.2,0.1-4.4,0.6-6.6c0.9-4,2.1-8,3-12c0.8-3.6-0.2-6.4-2.6-7.8
		c0,0,0,0,0,0c0,0,0,0,0,0c-1.4-0.8-3.1-1.2-5.2-0.9c-3.6,0.4-6.5,1.9-8.7,4.8c-3,4-4.7,8.7-6.6,13.3c-1.1,2.5-2.1,4.9-3.4,7.2
		c-0.3,0.7-1.4,1.3-1.9,1.1c-0.7-0.2-1.1-1.2-1.6-1.8c-0.2-0.3-0.2-0.8-0.1-1.2c0.2-4.8,1.2-9.3,3.6-13.5c1.7-2.9,4-5.1,7.4-5.6
		c1.3-0.2,2.3-0.8,2.3-2.1c0-1.4-1.3-1.9-2.5-1.9c-3.2,0.2-6.3-0.1-9.3,0.8c-11.7,3.4-19.9,13.8-20.2,26
		c-0.3,7.7,4.6,12.5,12.7,10.7c4.4-1,7.3-3.9,9.9-7.4c1.3-1.7,2.4-3.5,3.7-5.3c0.3,1.5,0.4,2.8,0.6,4c1.1,5.6,5.4,8.9,11.1,8.6
		c4.4-0.3,8-2.3,11.1-5.2c0.6-0.6,1.1-1.1,1.8-1.7c-0.8-1.9-0.4-3.8-0.3-5.7C164.9,175.4,163.9,176.4,162.7,177.4z"/>
	<path class="st0" d="M218.4,170.8C218.3,170.8,218.3,170.8,218.4,170.8c-1.5,1.8-2.9,3.6-4.5,5.2c-0.5,0.5-1.8,0.9-2.3,0.5
		c-0.6-0.3-0.9-1.4-0.9-2.2c0.1-1.6,0.3-3.1,0.7-4.6c2-7.4,4.2-14.7,6.2-22.2c1.4-5.4,2.7-10.8,3.9-16.4c0.7-3.4-1-5.7-4.4-6.4
		c-3.5-0.7-6.8,0.1-9.9,1.8c-2.1,1.1-3.8,2.6-4.4,4.9c-1.9,6.7-3.8,13.3-5.4,20.1c-1.4,5.8-3.1,11.6-6,16.9
		c-1.1,2.1-2.6,4.1-4.2,5.9c-1.1,1.3-2.6,0.7-3.2-1c-0.2-0.5-0.3-1.1-0.3-1.6c-0.2-4.7,0.8-9.2,2.8-13.3c1.7-3.3,4-6,8-6.8
		c1.2-0.2,2.1-0.8,2.2-2.1c0.1-1.4-1.2-1.6-2.1-1.9c-0.5-0.1-0.9-0.2-1.3-0.2c-3.1,0-6.1,0.3-9,1.3c-5.1,1.6-9.2,4.5-12.6,8.5
		c-4.2,5-6.7,10.7-7.1,17.2c0,0.8-0.1,1.4-0.3,2.1c0.5,2,0.8,3.5,1.3,5.4c0,0,0.1-0.1,0.1-0.1c2.8,6.1,9,6.4,13.3,4.6
		c4.2-1.8,7.2-5.1,9.9-8.7c1.6-2.3,3.1-4.6,4.6-7c0,0.4,0,0.7,0.1,1c0.4,2.6,0.5,5.2,1.2,7.7c1.3,4.5,5.1,6.8,9.8,6.5
		c3.6-0.3,6.9-1.6,9.5-4.1c2.1-1.9,3.9-4.1,5.7-6.3c-0.1,0-0.1,0.1-0.2,0.2C219.2,174,218.3,172.3,218.4,170.8z"/>
	<path class="st0" d="M217.7,167.5c0,0.6,0,1.3,0.1,1.9c0,0.2,0,0.4,0.1,0.6c0.8,6,3.5,10.8,9.5,13.1c2.4,0.9,5.2,1.5,7.8,1.5
		c2.4,0,4.8-0.2,7.1-0.7c0.4-0.1,0.9-0.2,1.3-0.3c2.1-0.8,3.9-1.6,5.4-3l2.5-3.6c0,0,0.2-0.5,0.2-0.5c3.8-8.5,4.5-11.5,4-19.1
		c-0.2-3.4-0.6-6.8-0.9-10.2c-0.3-3.3-1-6.7,1.8-9.5c-1-0.5-1.8-1.2-2.7-1.6c-2.7-1.2-5.5-1.3-8.3-1c-6.5,0.6-11.1,5.1-11.2,11.4
		c0,2.6,0.5,5.1,1.1,7.6c1.3,4.9,2.9,9.8,4.1,14.7c0.6,2.8,0.7,5.9-0.7,8.6c-1.1,2.1-2.8,3.3-5.3,3.2c-2.3-0.1-3.8-1.4-4.7-3.4
		c-1.2-2.7-1.1-5.5,0.7-7.9c0.9-1.2,2.1-2.2,3.2-3.3c0.3-0.4,0.6-0.8,0.6-1.2c-0.2-1.8-0.3-3.8-0.9-5.4c-1.1-3-3.8-4.5-7-4
		c-3.8,0.5-6,3-7.2,6.4c-0.1,0.2-0.2,0.4-0.2,0.6"/>
</g>
<g>
	<path class="st1" d="M310.7,135.2c-1.5,15.7-15.8,31-31.9,34.2"/>
	<path class="st1" d="M311.3,153c-3.6,6.8-9,12.4-15.1,16.2"/>
	<path class="st1" d="M36.5,148.2c-7.6-5.3-11.3-17-8.3-26.2"/>
	<path class="st1" d="M23.5,145.8c-2.4-3.8-3.7-8.2-3.9-12.4"/>
	<path class="st1" d="M277.2,52.4c4.2-8.5,16.4-14.6,27.1-13.6"/>
	<path class="st1" d="M174.1,57.4c6.2-4,16.7-3.1,23.4,2"/>
	<path class="st1" d="M260.7,186.7c-3.3,3.1-7.3,5.2-11.4,6.2"/>
	<path class="st1" d="M278.7,39.2c3.3-3,7.4-5,11.6-6"/>
	<path class="st1" d="M213.9,195.8c-7,2-14.4,2-21.1,0.4"/>
	<path class="st1" d="M259.1,197c-0.9,0.7-2,1.2-3.1,1.5"/>
	<path class="st1" d="M45.9,49.6L12,13"/>
	<path class="st1" d="M52.9,33.2l3.8,7.5"/>
	<path class="st1" d="M355.2,25l-6.9,19.3"/>
	<path class="st1" d="M338.3,41.8l0.3-3.4"/>
	<g>
		<path class="st1" d="M108.8,188.9l-27.2,21.7"/>
		<path class="st1" d="M81.9,187.8l23.6-10.8"/>
	</g>
	<g>
		<path class="st1" d="M79.1,152.4l-1.5,7.1"/>
		<path class="st1" d="M81.9,156.7l-7.1-1.5"/>
	</g>
	<path class="st1" d="M372.3,78.2l-5.4,13.3"/>
	<path class="st1" d="M376.3,87.5L363,82.2"/>
	<path class="st1" d="M4.9,5.6L3,3.7"/>
	<path class="st1" d="M391.9,16.3l2.5-2.2"/>
	<path class="st1" d="M35.9,63l-11.6-2.4"/>
	<path class="st1" d="M114.4,35.1l1.3,3.4"/>
	<path class="st1" d="M120,49.3l1.3,3.4"/>
	<path class="st1" d="M126.7,40.5l-3.4,1.3"/>
	<path class="st1" d="M112.4,46l-3.4,1.3"/>
	<path class="st1" d="M112.4,46l-3.4,1.3"/>
	<path class="st1" d="M143.5,203.2l0.5,2.3"/>
	<path class="st1" d="M145.6,212.9l0.5,2.3"/>
	<path class="st1" d="M150.8,207.9l-2.3,0.5"/>
	<path class="st1" d="M141.1,210l-2.3,0.5"/>
	<path class="st1" d="M141.1,210l-2.3,0.5"/>
	<path class="st1" d="M382.3,25.3l-23.1,23.3"/>
	<path class="st1" d="M351,117.3c2.7,0,5,2.2,5,5s-2.2,5-5,5c-2.7,0-5-2.2-5-5S348.2,117.3,351,117.3z"/>
</g>
</svg>
